<svg width="300" height="148" viewBox="0 0 300 148" fill="none" xmlns="http://www.w3.org/2000/svg">
<g clip-path="url(#clip0_1_2)">
<path d="M300 127.027V20.972C300 9.585 290.714 0 279.042 0H20.958C9.578 0 0 9.293 0 20.973V127.027C0 138.415 9.286 148 20.958 148H279.042C290.714 148 300 138.415 300 127.027ZM22.455 139.316C14.97 139.316 8.678 133.324 8.678 125.529V22.165C8.678 14.675 14.666 8.378 22.455 8.378L277.545 8.39C285.03 8.39 291.322 14.382 291.322 22.177V125.54C291.322 133.03 285.334 139.327 277.545 139.327C277.545 139.315 22.455 139.316 22.455 139.316Z" fill="white"/>
<path d="M169.739 102.658C169.39 103.968 168.546 105.091 167.385 105.791C167.357 105.811 167.33 105.826 167.299 105.846L166.679 104.773L167.291 105.842C163.172 108.228 158.623 109.778 153.904 110.402C149.23 111.016 144.481 110.714 139.923 109.513C139.869 109.505 139.814 109.493 139.756 109.482C139.701 109.466 139.615 109.443 139.506 109.407C139.438 109.387 139.37 109.363 139.304 109.337C134.799 108.069 130.581 105.944 126.883 103.076C123.202 100.216 120.108 96.6707 117.773 92.636C117.757 92.613 117.741 92.586 117.726 92.562L118.798 91.942L117.73 92.555C115.345 88.4325 113.796 83.8799 113.172 79.158C112.552 74.442 112.872 69.69 114.061 65.168C114.069 65.114 114.081 65.055 114.092 65.001C114.108 64.946 114.131 64.861 114.166 64.751C114.187 64.6823 114.21 64.6145 114.237 64.548C115.503 60.0412 117.628 55.8214 120.494 52.12C123.351 48.4364 126.893 45.3405 130.926 43.003C130.949 42.987 130.977 42.971 131 42.956L131.62 44.029L131.008 42.959C135.127 40.5723 139.676 39.0227 144.395 38.399C149.108 37.779 153.857 38.099 158.375 39.289C158.43 39.297 158.488 39.309 158.543 39.319C158.598 39.336 158.683 39.359 158.792 39.394C158.867 39.417 158.937 39.441 158.995 39.464C162.871 40.5553 166.539 42.2821 169.849 44.574C172.769 46.598 175.372 49.0436 177.575 51.831L183.283 46.119C183.447 45.9507 183.656 45.8328 183.885 45.7789C184.114 45.7251 184.354 45.7375 184.576 45.8148C184.798 45.8922 184.993 46.0312 185.139 46.2155C185.285 46.3999 185.376 46.6221 185.4 46.856L184.168 46.986L185.396 46.861L187.7 69.1C187.734 69.2888 187.723 69.4828 187.669 69.6669C187.615 69.851 187.519 70.02 187.389 70.1606C187.259 70.3013 187.097 70.4098 186.918 70.4775C186.739 70.5452 186.546 70.5704 186.355 70.551V70.548L164.122 68.242C163.881 68.2341 163.647 68.1558 163.449 68.0167C163.252 67.8776 163.099 67.6837 163.011 67.459C162.922 67.2342 162.901 66.9885 162.95 66.752C162.999 66.5155 163.117 66.2986 163.288 66.128L170.106 59.305C166.711 54.5575 161.799 51.1092 156.181 49.529C156.139 49.5215 156.097 49.5122 156.056 49.501L155.939 49.474L155.834 49.451C155.781 49.4363 155.729 49.4193 155.678 49.4C149.111 47.6706 142.126 48.6133 136.252 52.022C133.361 53.6876 130.821 55.8973 128.77 58.529C126.728 61.1588 125.211 64.1574 124.303 67.361C124.296 67.4031 124.286 67.4448 124.275 67.486L124.252 67.599C124.244 67.634 124.236 67.669 124.229 67.708C124.214 67.7606 124.197 67.8126 124.178 67.864C123.332 71.097 123.12 74.4634 123.554 77.777C123.997 81.135 125.1 84.3723 126.798 87.303C128.462 90.195 130.67 92.7375 133.3 94.79C135.928 96.8333 138.925 98.351 142.127 99.26C142.169 99.268 142.208 99.276 142.251 99.288L142.364 99.311L142.474 99.335C142.528 99.35 142.579 99.365 142.63 99.385C145.86 100.232 149.225 100.444 152.536 100.009C155.866 99.5694 159.076 98.4801 161.986 96.803L162.001 96.795L162.005 96.791L162.025 96.779L162.032 96.775L162.052 96.764L162.056 96.76L162.122 96.725C163.307 96.0614 164.704 95.8844 166.017 96.2315C167.33 96.5786 168.457 97.4225 169.159 98.585L169.178 98.613L169.182 98.617L169.194 98.637L169.198 98.644L169.21 98.664L169.213 98.668L169.249 98.734C169.917 99.9229 170.093 101.326 169.74 102.643L169.739 102.658Z" fill="white"/>
</g>
<defs>
<clipPath id="clip0_1_2">
<rect width="300" height="148" fill="white"/>
</clipPath>
</defs>
</svg>
