<svg width="2117" height="580" viewBox="0 0 2117 580" fill="none" xmlns="http://www.w3.org/2000/svg">
<path d="M1842.55 291.45C1842.55 219.364 1892.27 150.179 1979.68 150.179C2067.1 150.179 2116.81 219.364 2116.81 291.45C2116.81 363.536 2067.1 433.136 1979.68 433.136C1892.27 433.136 1842.55 363.536 1842.55 291.45ZM2051.77 291.45C2051.77 250.85 2026.5 210.664 1979.68 210.664C1932.87 210.664 1908.01 250.85 1908.01 291.45C1908.01 332.464 1933.28 371.821 1979.68 371.821C2026.08 371.821 2051.77 332.464 2051.77 291.45Z" fill="white"/>
<path d="M1521.62 427.75V155.564H1709.29C1763.98 155.564 1790.91 195.336 1790.91 239.25C1790.91 276.121 1770.19 310.093 1729.18 318.379C1730.42 320.45 1732.08 322.107 1732.91 324.179L1795.05 427.75H1724.21L1660.41 320.45H1584.59V427.75H1521.62ZM1584.59 262.45H1709.29C1721.31 262.45 1727.94 253.75 1727.94 241.736V234.279C1727.94 221.85 1721.31 213.564 1709.29 213.564H1584.59V262.45Z" fill="white"/>
<path d="M1193.11 155.564H1452.45V213.564H1256.08V262.45H1401.91V320.45H1256.08V369.75H1452.45V427.75H1193.11V155.564Z" fill="white"/>
<path d="M864.407 378.45L1025.15 213.564H869.378V155.564H1118.78V204.864L957.621 369.75H1123.75V427.75H864.407V378.45Z" fill="white"/>
<path d="M175.752 462.837C256.18 516.122 365.61 507.334 436.472 436.472C477.446 395.498 497.666 341.629 497.133 287.928L570.158 214.903C595.995 311.652 570.962 419.159 495.061 495.061C381.809 608.313 198.191 608.313 84.939 495.061C74.993 485.115 65.9204 474.626 57.7213 463.69L154.513 366.898H271.691L175.752 462.837Z" fill="white"/>
<path d="M84.939 84.939C9.03753 160.841 -15.9948 268.348 9.84206 365.097L82.8674 292.072C82.3337 238.371 102.554 184.502 143.528 143.528C214.39 72.6659 323.82 63.8778 404.248 117.163L308.309 213.102H425.487L522.279 116.31C514.08 105.374 505.007 94.8851 495.061 84.939C381.809 -28.313 198.191 -28.313 84.939 84.939Z" fill="white"/>
</svg>
